<svg xmlns="http://www.w3.org/2000/svg" viewBox="0 0 214.62 202.96"><defs><style>.cls-1{isolation:isolate;}.cls-2{fill:#d360a0;mix-blend-mode:multiply;}</style></defs><title>dot</title><g class="cls-1"><g id="Ebene_2" data-name="Ebene 2"><g id="Ebene_1-2" data-name="Ebene 1"><path class="cls-2" d="M214.35,87c-1.52-13.77-9.53-25-17.51-35C187,39.64,176.3,27.67,163.23,21.12a43.23,43.23,0,0,0-15.76-4.49C142.05,7.74,134.4,0,125.07,0,109.4,0,89,16.37,79,27a164.89,164.89,0,0,0-12.09,15c-4.71,6.42-9.37,13.06-12.56,20.3h-.22c-5.57,0-11.34.38-16.3,2.92C32.5,68,28.62,72.94,25.43,78c-6.09,9.68-10.32,20.4-14.52,31-5.46,13.86-19.08,43.86-4.1,56,11.38,9.2,42.15,4.65,55.48,4.17a145.87,145.87,0,0,0,15.42-1.35,50.65,50.65,0,0,0,20.76,23.94c11.79,6.92,41,17.24,52.5,6.59,4.54-4.18,8.36-14.85,13.52-20.22,6.78-7.06,14.16-13.23,20.73-20.61a129,129,0,0,0,24.41-41.42C213,107,215.46,96.9,214.35,87Z"/></g></g></g></svg>