<svg xmlns="http://www.w3.org/2000/svg" viewBox="0 0 105.5 20.41"><defs><style>.cls-1{isolation:isolate;}.cls-2{fill:#fff;}.cls-3{fill:#166369;}.cls-4{fill:#fdeb16;}.cls-4,.cls-5{mix-blend-mode:multiply;}.cls-5{fill:#d360a0;}</style></defs><title>Element 5</title><g class="cls-1"><g id="Ebene_2" data-name="Ebene 2"><g id="Ebene_1-2" data-name="Ebene 1"><path class="cls-2" d="M1.36,4.39a1.19,1.19,0,0,0-.1-.61A.88.88,0,0,0,.85,3.5l-.09,0C.29,3.29,0,3.06,0,2.79a.66.66,0,0,1,.22-.44A4,4,0,0,1,1,1.84L3.63.21A1.31,1.31,0,0,1,3.94.05a.86.86,0,0,1,.27,0,.42.42,0,0,1,.36.15,1,1,0,0,1,.1.52V9.94A16.82,16.82,0,0,0,6.33,8.37a1.78,1.78,0,0,0,.57-.91c0-.09-.16-.22-.48-.38S6,6.71,6,6.47A.57.57,0,0,1,6.18,6a1.33,1.33,0,0,1,.72-.15h3.33A1.57,1.57,0,0,1,11,6a.58.58,0,0,1,.23.52c0,.39-.34.67-1,.84h0a2.31,2.31,0,0,0-.78.36,6.74,6.74,0,0,0-.94.88l2.27,4.62c0,.09.1.2.17.33a3.61,3.61,0,0,0,1.23,1.65h0a.88.88,0,0,1,.49.78.68.68,0,0,1-.18.48.66.66,0,0,1-.49.18H9.43A.7.7,0,0,1,9,16.51,1.68,1.68,0,0,1,8.62,16L6.08,10.84,4.63,12.17v1.61a1.63,1.63,0,0,0,.12.68,1.06,1.06,0,0,0,.41.47l.26.17a.94.94,0,0,1,.55.77.69.69,0,0,1-.22.55.88.88,0,0,1-.62.21H.85a.88.88,0,0,1-.62-.21A.7.7,0,0,1,0,15.87c0-.28.19-.53.56-.75a2.94,2.94,0,0,0,.29-.19,1.18,1.18,0,0,0,.39-.45,1.73,1.73,0,0,0,.12-.7Z"/><path class="cls-2" d="M20.65,15.51a9.41,9.41,0,0,1-2.15,1,7.06,7.06,0,0,1-2.19.34A4.36,4.36,0,0,1,13.48,16a2.85,2.85,0,0,1-1.08-2.29,3.3,3.3,0,0,1,1.53-2.86,7.35,7.35,0,0,1,4.2-1H19A3.86,3.86,0,0,0,18.1,8a2.11,2.11,0,0,0-1.5-.48,3.24,3.24,0,0,0-1.73.56,3.84,3.84,0,0,1-1.09.56.44.44,0,0,1-.37-.16.56.56,0,0,1-.15-.41q0-.87,1.38-1.71a5.9,5.9,0,0,1,3.14-.84,4.06,4.06,0,0,1,2.78.9,6.51,6.51,0,0,1,1.7,3l1.13,3.57A4.28,4.28,0,0,0,24,14.4a1,1,0,0,0,.81.41.67.67,0,0,0,.45-.17l.1-.05c.08,0,.16.07.22.21a1.34,1.34,0,0,1,.1.52,1.23,1.23,0,0,1-.64,1.07,3.14,3.14,0,0,1-1.71.4,3.67,3.67,0,0,1-1.51-.31A3.46,3.46,0,0,1,20.65,15.51ZM19.58,11.9a.83.83,0,0,0-.42-.51,1.9,1.9,0,0,0-.87-.16,2.54,2.54,0,0,0-1.68.53,1.73,1.73,0,0,0-.63,1.4,1.69,1.69,0,0,0,.57,1.32A2.17,2.17,0,0,0,18,15a2.59,2.59,0,0,0,1.45-.36,1.11,1.11,0,0,0,.53-.95,1.94,1.94,0,0,0,0-.24,2.66,2.66,0,0,0-.08-.35Z"/><path class="cls-2" d="M26.63,7.73H25.46a1,1,0,0,1-.57-.14.51.51,0,0,1-.19-.44,1.27,1.27,0,0,1,.4-.77l.13-.14,3.09-3.65.28-.33c.33-.41.57-.62.73-.62a.45.45,0,0,1,.44.25,2.45,2.45,0,0,1,.15,1V5.82h3.22c.17,0,.28,0,.32.08a.42.42,0,0,1,.08.29,2.4,2.4,0,0,1-.2,1.09.62.62,0,0,1-.57.38H29.92v5.55a2.28,2.28,0,0,0,.23,1.22.9.9,0,0,0,.78.32A2.54,2.54,0,0,0,32,14.31a2.59,2.59,0,0,1,1-.44.62.62,0,0,1,.48.19.65.65,0,0,1,.19.48c0,.59-.4,1.13-1.2,1.63a5.29,5.29,0,0,1-2.82.74,4,4,0,0,1-2.32-.69,1.93,1.93,0,0,1-1-1.52,5.08,5.08,0,0,1,.13-.75,6,6,0,0,0,.12-1.14Z"/><path class="cls-2" d="M45.61,14.24c-.15-.3-.26-.55-.35-.76a1.25,1.25,0,0,1-.13-.43.41.41,0,0,1,.42-.42,2.47,2.47,0,0,1,.94.59c.38.31.7.55,1,.74a5.2,5.2,0,0,0,1.53.75,6.12,6.12,0,0,0,1.79.27,3,3,0,0,0,1.46-.29.85.85,0,0,0,.54-.75c0-.49-.8-1-2.41-1.55l-.43-.15a11.08,11.08,0,0,1-3.56-1.71,2.58,2.58,0,0,1-.87-2,2.62,2.62,0,0,1,1-2.11,4,4,0,0,1,2.64-.85,7.71,7.71,0,0,1,1.69.21A9.92,9.92,0,0,0,52,6a1.18,1.18,0,0,0,.72-.37,1.28,1.28,0,0,1,.62-.37.36.36,0,0,1,.25.1,1.35,1.35,0,0,1,.28.36L55.25,8l.07.11a1.48,1.48,0,0,1,.23.56.53.53,0,0,1-.11.36.43.43,0,0,1-.33.12,1.65,1.65,0,0,1-.71-.38L54,8.47A9.65,9.65,0,0,0,52,7.38a4.38,4.38,0,0,0-1.59-.29,2.08,2.08,0,0,0-1,.23.72.72,0,0,0-.39.62c0,.49.91,1,2.72,1.49l1.07.31a6.44,6.44,0,0,1,2.73,1.41,2.91,2.91,0,0,1,.88,2.15,3.28,3.28,0,0,1-1.13,2.61,4.54,4.54,0,0,1-3.05,1,10.6,10.6,0,0,1-1.86-.18,11.48,11.48,0,0,0-1.15-.19,1,1,0,0,0-.89.52s0,.05-.06.08c-.24.35-.43.52-.57.52s-.5-.35-.88-1.06l0-.08Z"/><path class="cls-2" d="M61.16,17.58a1.63,1.63,0,0,0,.12.68,1.14,1.14,0,0,0,.42.46,1.58,1.58,0,0,0,.3.19.89.89,0,0,1,.54.73.71.71,0,0,1-.24.56.91.91,0,0,1-.64.21H57.4a.9.9,0,0,1-.63-.21.74.74,0,0,1-.23-.56.89.89,0,0,1,.54-.73,3.39,3.39,0,0,0,.32-.19,1.24,1.24,0,0,0,.38-.45,1.64,1.64,0,0,0,.12-.69v-8A1.19,1.19,0,0,0,57.79,9a.92.92,0,0,0-.44-.27l-.17-.07c-.45-.17-.68-.39-.68-.65a.68.68,0,0,1,.28-.49A4.74,4.74,0,0,1,57.66,7l2.46-1.26.35-.15a1.09,1.09,0,0,1,.26,0,.32.32,0,0,1,.31.15,1,1,0,0,1,.09.53V7.5a4.94,4.94,0,0,1,1.52-1.42,3.36,3.36,0,0,1,1.78-.49,4.26,4.26,0,0,1,3.4,1.72,6.33,6.33,0,0,1,1.42,4.19A5.66,5.66,0,0,1,68,15.28a3.92,3.92,0,0,1-3.11,1.55,4.08,4.08,0,0,1-1.93-.47,6.1,6.1,0,0,1-1.75-1.46ZM64.05,7.22a2.68,2.68,0,0,0-2.19,1.14A4.54,4.54,0,0,0,61,11.23a4.15,4.15,0,0,0,.49,2.22,1.56,1.56,0,0,0,1.39.79A2.54,2.54,0,0,0,64,14a3.55,3.55,0,0,0,1-.79,4.83,4.83,0,0,0,1-1.48,3.94,3.94,0,0,0,.36-1.6A3.22,3.22,0,0,0,65.72,8,2,2,0,0,0,64.05,7.22Z"/><path class="cls-2" d="M78.18,15.51a9.41,9.41,0,0,1-2.15,1,7.06,7.06,0,0,1-2.19.34A4.36,4.36,0,0,1,71,16a2.85,2.85,0,0,1-1.08-2.29,3.3,3.3,0,0,1,1.53-2.86,7.33,7.33,0,0,1,4.2-1h.82A3.86,3.86,0,0,0,75.63,8a2.11,2.11,0,0,0-1.5-.48,3.24,3.24,0,0,0-1.73.56,3.84,3.84,0,0,1-1.09.56.48.48,0,0,1-.38-.16.6.6,0,0,1-.14-.41q0-.87,1.38-1.71a5.9,5.9,0,0,1,3.14-.84,4.08,4.08,0,0,1,2.78.9,6.51,6.51,0,0,1,1.7,3l1.13,3.57a4.28,4.28,0,0,0,.62,1.35,1,1,0,0,0,.81.41.67.67,0,0,0,.45-.17l.1-.05c.08,0,.16.07.22.21a1.34,1.34,0,0,1,.1.52,1.23,1.23,0,0,1-.64,1.07,3.14,3.14,0,0,1-1.71.4,3.67,3.67,0,0,1-1.51-.31A3.46,3.46,0,0,1,78.18,15.51ZM77.11,11.9a.82.82,0,0,0-.43-.51,1.85,1.85,0,0,0-.87-.16,2.53,2.53,0,0,0-1.67.53,1.73,1.73,0,0,0-.63,1.4,1.69,1.69,0,0,0,.57,1.32,2.17,2.17,0,0,0,1.48.5A2.54,2.54,0,0,0,77,14.62a1.1,1.1,0,0,0,.54-.95,1.94,1.94,0,0,0,0-.24c0-.09,0-.2-.08-.35Z"/><path class="cls-2" d="M92.69,9.92a1.14,1.14,0,0,1-.27.37.52.52,0,0,1-.32.11c-.25,0-.48-.36-.71-1.08-.07-.22-.12-.4-.17-.53a2.83,2.83,0,0,0-.82-1.3A1.9,1.9,0,0,0,89.16,7a2,2,0,0,0-1.78,1,5.07,5.07,0,0,0-.66,2.77,5,5,0,0,0,.89,3.06,2.72,2.72,0,0,0,2.28,1.18,3.44,3.44,0,0,0,1.36-.27,5,5,0,0,0,1.32-.88l.37-.36c.37-.36.65-.55.83-.55a.47.47,0,0,1,.38.17.6.6,0,0,1,.15.42,1.44,1.44,0,0,1-.25.73,5.21,5.21,0,0,1-.74.92,5,5,0,0,1-1.83,1.24,7.2,7.2,0,0,1-6.86-1.11,5.16,5.16,0,0,1-1.7-4,5.18,5.18,0,0,1,.54-2.27A6.24,6.24,0,0,1,87,6a7.2,7.2,0,0,1,2.43-.4,7.82,7.82,0,0,1,3,.58c1,.38,1.42.74,1.42,1.07a.76.76,0,0,1,0,.21,1.12,1.12,0,0,1-.1.24Z"/><path class="cls-2" d="M98.17,12.31a3.77,3.77,0,0,0,1.18,1.91,3,3,0,0,0,2,.66,4,4,0,0,0,1.08-.15,4,4,0,0,0,1-.44l.46-.31a3,3,0,0,1,1.1-.55.49.49,0,0,1,.38.15.52.52,0,0,1,.15.38,1.12,1.12,0,0,1-.2.57,3.12,3.12,0,0,1-.55.65,6.72,6.72,0,0,1-2.13,1.28,7.17,7.17,0,0,1-2.5.45,6.15,6.15,0,0,1-4.41-1.63A5.37,5.37,0,0,1,94,11.16,5.45,5.45,0,0,1,94.41,9a5.7,5.7,0,0,1,1.3-1.82A5.88,5.88,0,0,1,97.58,6a6,6,0,0,1,4.58.07A5.15,5.15,0,0,1,104,7.55a5.59,5.59,0,0,1,.76,1.23,2.59,2.59,0,0,1,.29,1,.3.3,0,0,1-.1.24,2.13,2.13,0,0,1-.56.24Zm-.4-1.17,3.07-1.07a1,1,0,0,0,.4-.22.51.51,0,0,0,.15-.33,2.49,2.49,0,0,0-.69-1.68,2.05,2.05,0,0,0-1.57-.78,1.52,1.52,0,0,0-1.24.61,2.41,2.41,0,0,0-.49,1.58,3.88,3.88,0,0,0,.09.77C97.54,10.31,97.64,10.68,97.77,11.14Z"/><path class="cls-3" d="M41.68,12.34a3.53,3.53,0,0,0,.7-1.19,1.84,1.84,0,0,0,.14-.84,2.11,2.11,0,0,0-.51-1,3.19,3.19,0,0,0-1-.88,1,1,0,0,0-1.17.1,2.1,2.1,0,0,0-.45.72,19.17,19.17,0,0,0-.82,2.23,2.16,2.16,0,0,0-.12.71,1.41,1.41,0,0,0,.69,1.15c.34.2,1.18.5,1.51.19.13-.12.24-.43.39-.58S41.49,12.56,41.68,12.34Z"/><path class="cls-4" d="M40.78,8.69a3.09,3.09,0,0,1,.15,1.13.78.78,0,0,1,0,.21.68.68,0,0,1-.18.2,3.55,3.55,0,0,1-1.74.7,1.19,1.19,0,0,1-1-.24.94.94,0,0,1-.18-.86A2.56,2.56,0,0,1,38.27,9a5,5,0,0,1,.35-.43A2.34,2.34,0,0,1,40,7.81C40.36,7.81,40.66,8.33,40.78,8.69Z"/><path class="cls-5" d="M38.14,12.68a2.62,2.62,0,0,0,1.61-.51.89.89,0,0,0,.3-.39,1,1,0,0,0,.05-.36,1.76,1.76,0,0,0-.12-.91,1.54,1.54,0,0,0-.78-.64,3.59,3.59,0,0,0-1.29-.27,1.07,1.07,0,0,0-.47.09.92.92,0,0,0-.36.37,4.54,4.54,0,0,0-.42.89c-.16.4-.55,1.26-.12,1.61S37.76,12.69,38.14,12.68Z"/></g></g></g></svg>